<svg width="212" height="25" viewBox="0 0 212 25" fill="none" xmlns="http://www.w3.org/2000/svg">
<path d="M108.816 18.508V6.892H112.768C114.576 6.892 115.952 7.404 116.896 8.412C117.824 9.436 118.288 10.844 118.288 12.636C118.288 14.668 117.808 16.156 116.848 17.084C115.872 18.044 114.512 18.508 112.768 18.508H108.816ZM110.608 8.54V16.908H112.768C113.92 16.908 114.816 16.604 115.456 15.964C116.08 15.356 116.4 14.268 116.4 12.7C116.4 11.292 116.08 10.252 115.456 9.564C114.816 8.892 113.92 8.54 112.768 8.54H110.608ZM126.963 14.908H120.899C120.899 15.692 121.171 16.268 121.747 16.636C122.307 17.02 123.027 17.212 123.923 17.212C124.851 17.212 125.603 17.036 126.179 16.7L126.659 17.98C125.827 18.444 124.819 18.684 123.603 18.684C122.227 18.684 121.123 18.348 120.307 17.644C119.475 16.956 119.059 15.9 119.059 14.46C119.059 13.164 119.427 12.124 120.163 11.324C120.899 10.54 121.923 10.14 123.235 10.14C124.275 10.14 125.171 10.492 125.923 11.164C126.659 11.852 127.027 12.812 127.027 14.028C127.027 14.476 126.995 14.764 126.963 14.908ZM120.899 13.596H125.203C125.203 13.02 125.011 12.508 124.659 12.076C124.291 11.66 123.779 11.452 123.107 11.452C122.499 11.452 121.971 11.628 121.555 11.964C121.107 12.316 120.899 12.86 120.899 13.596ZM127.724 17.772L128.396 16.524C128.732 16.78 129.084 16.956 129.452 17.068C129.804 17.196 130.124 17.26 130.412 17.26C130.94 17.26 131.324 17.18 131.58 17.004C131.82 16.844 131.948 16.636 131.948 16.38C131.948 16.06 131.82 15.804 131.596 15.644C131.34 15.484 130.956 15.324 130.428 15.164C128.86 14.652 128.092 13.836 128.092 12.732C128.092 11.98 128.38 11.372 128.972 10.908C129.548 10.46 130.332 10.22 131.292 10.22C132.156 10.22 132.908 10.46 133.548 10.94L132.988 12.22C132.38 11.852 131.82 11.66 131.308 11.66C130.924 11.66 130.604 11.74 130.364 11.884C130.108 12.044 129.996 12.268 129.996 12.572C129.996 12.828 130.108 13.036 130.364 13.196C130.604 13.388 131.02 13.58 131.596 13.788C132.364 14.076 132.94 14.412 133.324 14.764C133.676 15.132 133.868 15.612 133.868 16.204C133.868 17.004 133.564 17.612 132.972 18.044C132.364 18.492 131.5 18.7 130.364 18.7C129.916 18.7 129.468 18.62 129.004 18.46C128.524 18.316 128.108 18.092 127.724 17.772ZM134.972 18.508V10.332H136.764V18.508H134.972ZM136.828 6.06V7.98H134.892V6.06H136.828ZM144.506 10.332H146.17V17.132C146.154 18.748 145.738 19.948 144.922 20.732C144.17 21.404 143.114 21.756 141.77 21.756C141.13 21.756 140.538 21.644 139.962 21.436C139.386 21.212 138.906 20.972 138.522 20.7L139.242 19.484C139.674 19.772 140.122 19.98 140.57 20.108C141.002 20.252 141.434 20.316 141.882 20.316C142.682 20.316 143.29 20.124 143.738 19.74C144.154 19.356 144.378 18.716 144.378 17.788V17.068C144.122 17.484 143.77 17.788 143.322 17.996C142.874 18.22 142.346 18.316 141.77 18.316C140.746 18.316 139.866 17.916 139.146 17.084C138.41 16.268 138.058 15.34 138.074 14.3C138.058 13.116 138.442 12.124 139.21 11.324C139.962 10.524 140.858 10.124 141.882 10.124C143.114 10.124 143.994 10.54 144.506 11.372V10.332ZM144.362 14.62V13.756C144.362 13.564 144.33 13.34 144.266 13.116C144.138 12.668 143.898 12.268 143.546 11.916C143.178 11.58 142.746 11.404 142.234 11.404C141.546 11.404 140.986 11.66 140.57 12.14C140.122 12.652 139.914 13.356 139.914 14.268C139.914 15.1 140.122 15.756 140.538 16.236C140.938 16.732 141.514 16.972 142.25 16.972C142.698 16.972 143.114 16.828 143.498 16.54C143.85 16.252 144.106 15.9 144.25 15.452C144.314 15.18 144.362 14.908 144.362 14.62ZM147.8 18.508V10.332H149.592V11.644C149.816 11.212 150.168 10.844 150.616 10.556C151.048 10.268 151.624 10.124 152.344 10.124C153.144 10.124 153.848 10.412 154.456 10.972C155.032 11.548 155.336 12.46 155.336 13.692V18.508H153.592V13.868C153.592 13.212 153.432 12.652 153.128 12.188C152.808 11.74 152.312 11.516 151.656 11.516C150.984 11.516 150.488 11.74 150.136 12.188C149.768 12.652 149.592 13.308 149.592 14.172V18.508H147.8ZM159.804 17.74L160.46 16.236C161.388 16.796 162.284 17.068 163.18 17.068C163.868 17.068 164.428 16.94 164.86 16.684C165.276 16.428 165.484 16.028 165.484 15.484C165.484 15.004 165.308 14.604 164.972 14.3C164.62 14.012 164.044 13.724 163.244 13.436C161.1 12.796 160.028 11.692 160.028 10.156C160.028 9.18 160.412 8.364 161.196 7.724C161.964 7.084 162.988 6.764 164.252 6.764C164.764 6.764 165.244 6.844 165.708 6.988C166.156 7.148 166.572 7.356 166.94 7.596L166.316 9.02C165.996 8.828 165.644 8.668 165.276 8.54C164.892 8.428 164.524 8.364 164.204 8.364C163.532 8.364 163.004 8.524 162.636 8.828C162.252 9.148 162.06 9.516 162.06 9.932C162.06 10.412 162.236 10.78 162.604 11.036C162.956 11.308 163.564 11.612 164.428 11.948C165.484 12.364 166.268 12.812 166.78 13.308C167.26 13.82 167.516 14.476 167.516 15.308C167.516 16.332 167.164 17.164 166.476 17.772C165.772 18.396 164.668 18.7 163.18 18.7C162.508 18.7 161.868 18.588 161.228 18.364C160.572 18.156 160.092 17.948 159.804 17.74ZM168.022 10.332H169.942L172.31 16.284L174.31 10.332H176.23L173.67 17.228C173.478 17.788 173.238 18.428 172.95 19.164C172.646 19.9 172.198 20.508 171.622 20.988C171.318 21.244 170.902 21.484 170.39 21.692C169.862 21.884 169.366 21.98 168.886 21.98L168.342 20.652C169.094 20.604 169.734 20.412 170.278 20.092C170.598 19.884 170.87 19.596 171.078 19.228C171.27 18.876 171.382 18.524 171.382 18.172L168.022 10.332ZM176.396 17.772L177.068 16.524C177.404 16.78 177.756 16.956 178.124 17.068C178.476 17.196 178.796 17.26 179.084 17.26C179.612 17.26 179.996 17.18 180.252 17.004C180.492 16.844 180.62 16.636 180.62 16.38C180.62 16.06 180.492 15.804 180.268 15.644C180.012 15.484 179.628 15.324 179.1 15.164C177.532 14.652 176.764 13.836 176.764 12.732C176.764 11.98 177.052 11.372 177.644 10.908C178.22 10.46 179.004 10.22 179.964 10.22C180.828 10.22 181.58 10.46 182.22 10.94L181.66 12.22C181.052 11.852 180.492 11.66 179.98 11.66C179.596 11.66 179.276 11.74 179.036 11.884C178.78 12.044 178.668 12.268 178.668 12.572C178.668 12.828 178.78 13.036 179.036 13.196C179.276 13.388 179.692 13.58 180.268 13.788C181.036 14.076 181.612 14.412 181.996 14.764C182.348 15.132 182.54 15.612 182.54 16.204C182.54 17.004 182.236 17.612 181.644 18.044C181.036 18.492 180.172 18.7 179.036 18.7C178.588 18.7 178.14 18.62 177.676 18.46C177.196 18.316 176.78 18.092 176.396 17.772ZM184.548 7.772H186.34V10.332H188.42V11.772H186.34V15.548C186.34 16.124 186.436 16.524 186.66 16.748C186.852 17.004 187.172 17.116 187.62 17.116C187.908 17.116 188.18 17.084 188.436 17.004V18.508C187.988 18.636 187.524 18.7 187.028 18.7C186.244 18.7 185.636 18.476 185.204 17.996C184.756 17.516 184.548 16.716 184.548 15.564V11.772H182.868V10.332H184.548V7.772ZM197.322 14.908H191.258C191.258 15.692 191.53 16.268 192.106 16.636C192.666 17.02 193.386 17.212 194.282 17.212C195.21 17.212 195.962 17.036 196.538 16.7L197.018 17.98C196.186 18.444 195.178 18.684 193.962 18.684C192.586 18.684 191.482 18.348 190.666 17.644C189.834 16.956 189.418 15.9 189.418 14.46C189.418 13.164 189.786 12.124 190.522 11.324C191.258 10.54 192.282 10.14 193.594 10.14C194.634 10.14 195.53 10.492 196.282 11.164C197.018 11.852 197.386 12.812 197.386 14.028C197.386 14.476 197.354 14.764 197.322 14.908ZM191.258 13.596H195.562C195.562 13.02 195.37 12.508 195.018 12.076C194.65 11.66 194.138 11.452 193.466 11.452C192.858 11.452 192.33 11.628 191.914 11.964C191.466 12.316 191.258 12.86 191.258 13.596ZM198.643 18.508V10.332H200.435V11.628C201.027 10.636 201.923 10.124 203.107 10.124C203.619 10.124 204.115 10.3 204.579 10.62C205.027 10.956 205.315 11.34 205.443 11.756C205.715 11.292 206.083 10.908 206.547 10.588C206.995 10.284 207.587 10.124 208.355 10.124C209.123 10.124 209.779 10.412 210.355 10.988C210.899 11.58 211.187 12.492 211.187 13.74V18.508H209.443V13.852C209.443 12.3 208.851 11.516 207.683 11.516C207.267 11.516 206.899 11.644 206.595 11.884C206.275 12.14 206.051 12.46 205.907 12.844C205.843 13.164 205.811 13.42 205.811 13.612V18.508H204.067V13.74C204.067 13.116 203.923 12.588 203.635 12.156C203.331 11.74 202.899 11.516 202.339 11.516C201.891 11.516 201.523 11.676 201.235 11.996C200.915 12.332 200.691 12.7 200.563 13.084C200.483 13.324 200.435 13.564 200.435 13.82V18.508H198.643Z" fill="black"/>
<path d="M12.6977 5.47323V18.3418H10.2746V11.7274H3.30005V18.3418H0.876953V5.47323H3.30005V9.68091H10.2746V5.47323H12.6977Z" fill="black"/>
<path d="M20.6476 13.8067H17.7661C16.8329 13.8067 16.3745 14.1833 16.3745 14.9037V15.2475C16.3745 15.9679 16.8329 16.328 17.7661 16.328H20.6476C21.5972 16.328 22.072 15.9679 22.072 15.2475V14.9037C22.072 14.1833 21.5972 13.8067 20.6476 13.8067ZM17.1112 18.3418C16.1616 18.3418 15.3921 18.0635 14.8191 17.5069C14.2297 16.9502 13.9514 16.2626 13.9514 15.4439V14.7399C13.9514 13.9213 14.2297 13.2337 14.8191 12.6607C15.3921 12.104 16.1289 11.8093 17.0293 11.8093H22.072V11.7766C22.072 10.9907 21.5154 10.5814 20.4184 10.5814H14.7209V8.58397H20.6476C21.8592 8.58397 22.8088 8.91141 23.4964 9.54993C24.1513 10.1884 24.4951 11.0562 24.4951 12.1367V15.5258C24.4951 16.3772 24.184 17.0812 23.5783 17.6051C23.0052 18.0963 22.2357 18.3418 21.2534 18.3418H17.1112Z" fill="black"/>
<path d="M29.959 8.58397H31.9728C33.2498 8.58397 34.2485 8.96053 35.0016 9.69728C35.722 10.4504 36.0986 11.4819 36.0986 12.7753V18.3418H33.6755V12.939C33.6755 12.1531 33.5281 11.5801 33.2498 11.2363C32.906 10.827 32.3984 10.6141 31.7272 10.6141H30.1718C29.5169 10.6141 29.0257 10.827 28.6819 11.2363C28.42 11.5801 28.289 12.1531 28.289 12.939V18.3418H25.8659V12.7753C25.8659 11.4819 26.2261 10.4504 26.9628 9.69728C27.6996 8.96053 28.6983 8.58397 29.959 8.58397Z" fill="black"/>
<path d="M44.9249 17.163C44.2536 17.9489 43.4023 18.3418 42.3544 18.3418H41.0774C39.9313 18.3418 38.9981 17.9816 38.3105 17.2449C37.672 16.5736 37.3609 15.624 37.3609 14.4125V8.58397H39.7676V14.3634C39.7676 15.051 39.8986 15.5422 40.1769 15.8369C40.4716 16.1643 40.8646 16.3117 41.3557 16.3117H42.1088C42.6 16.3117 43.0093 16.1643 43.304 15.8369C43.5824 15.5422 43.7297 15.051 43.7297 14.3634V8.58397H46.1201V14.3634C46.1201 15.051 46.251 15.5422 46.5294 15.8369C46.8241 16.1643 47.217 16.3117 47.7082 16.3117H48.4613C48.9525 16.3117 49.3618 16.1643 49.6565 15.8369C49.9348 15.5422 50.0821 15.051 50.0821 14.3634V8.58397H52.4889V14.4125C52.4889 15.624 52.1614 16.5736 51.5065 17.2449C50.7862 17.9816 49.8693 18.3418 48.7232 18.3418H47.4462C46.4311 18.3418 45.5798 17.9489 44.9249 17.163Z" fill="black"/>
<path d="M58.0718 10.6141C57.4169 10.6141 56.9258 10.827 56.5819 11.2363C56.32 11.5801 56.189 12.1531 56.189 12.939V18.3418H53.7659V5.44049H56.189V9.02602C56.6638 8.73132 57.2205 8.58397 57.859 8.58397H59.8728C61.1498 8.58397 62.1485 8.96053 62.9016 9.69728C63.622 10.4504 63.9986 11.4819 63.9986 12.7753V18.3418H61.5755V12.939C61.5755 12.1531 61.4281 11.5801 61.1498 11.2363C60.806 10.827 60.2984 10.6141 59.6272 10.6141H58.0718Z" fill="black"/>
<path d="M71.8589 13.8067H68.9774C68.0442 13.8067 67.5858 14.1833 67.5858 14.9037V15.2475C67.5858 15.9679 68.0442 16.328 68.9774 16.328H71.8589C72.8085 16.328 73.2833 15.9679 73.2833 15.2475V14.9037C73.2833 14.1833 72.8085 13.8067 71.8589 13.8067ZM68.3225 18.3418C67.3729 18.3418 66.6034 18.0635 66.0304 17.5069C65.441 16.9502 65.1627 16.2626 65.1627 15.4439V14.7399C65.1627 13.9213 65.441 13.2337 66.0304 12.6607C66.6034 12.104 67.3402 11.8093 68.2406 11.8093H73.2833V11.7766C73.2833 10.9907 72.7267 10.5814 71.6297 10.5814H65.9322V8.58397H71.8589C73.0705 8.58397 74.0201 8.91141 74.7077 9.54993C75.3626 10.1884 75.7064 11.0562 75.7064 12.1367V15.5258C75.7064 16.3772 75.3953 17.0812 74.7896 17.6051C74.2165 18.0963 73.447 18.3418 72.4647 18.3418H68.3225Z" fill="black"/>
<path d="M77.3599 18.3418V5.44049H79.8157V18.3418H77.3599Z" fill="black"/>
<path d="M81.9441 18.3418V8.61671H84.3999V18.3418H81.9441ZM84.6946 6.76664C84.6946 7.17595 84.5473 7.50339 84.2526 7.74898C83.9579 8.01094 83.5813 8.14191 83.1556 8.14191C82.7299 8.14191 82.3698 8.01094 82.0914 7.74898C81.7967 7.50339 81.6658 7.17595 81.6658 6.76664C81.6658 6.37371 81.7967 6.04626 82.0914 5.76793C82.3698 5.50598 82.7299 5.375 83.1556 5.375C83.5813 5.375 83.9579 5.50598 84.2526 5.76793C84.5473 6.02989 84.6946 6.37371 84.6946 6.76664Z" fill="black"/>
<path d="M88.7877 8.63308H92.3241V10.6469H88.7713V18.3418H86.3319V8.63308C86.3319 7.71623 86.6593 6.94674 87.3469 6.35734C88.0018 5.76793 89.0005 5.47323 90.3594 5.47323H92.3241V7.50339H90.474C89.459 7.50339 88.8859 7.87996 88.7877 8.63308Z" fill="black"/>
<path d="M97.2143 13.1027H100.112C101.045 13.1027 101.52 12.7425 101.52 12.0221V11.6783C101.52 10.9579 101.045 10.5814 100.112 10.5814H97.2143C96.2811 10.5814 95.8227 10.9579 95.8227 11.6783V12.0221C95.8227 12.7425 96.2811 13.1027 97.2143 13.1027ZM103.943 11.5146V12.2022C103.943 13.0208 103.649 13.7085 103.059 14.2651C102.453 14.8218 101.717 15.1001 100.833 15.1001H95.8227V15.1492C95.8227 15.9351 96.3629 16.328 97.4762 16.328H103.501V18.3418H97.2307C96.0027 18.3418 95.0532 18.0308 94.3819 17.3922C93.727 16.7701 93.3996 15.9187 93.3996 14.8218V11.4982C93.3996 10.6796 93.6779 9.99198 94.2673 9.43532C94.8567 8.87867 95.6262 8.58397 96.5758 8.58397H100.751C101.7 8.58397 102.47 8.87867 103.059 9.43532C103.649 10.0084 103.943 10.696 103.943 11.5146Z" fill="black"/>
</svg>
